PathFileType	4	(X/Y/Z)	C:/Users/opensim2020/Desktop/walking_exp_matlab/subject02_walking10_straight_02.trc																																																																																																																															
DataRate	CameraRate	NumFrames	NumMarkers	Units	OrigDataRate	OrigDataStartFrame	OrigNumFrames																																																																																																																											
100	100	6	43	mm	100	1575	280																																																																																																																											
Frame#	Time	LFHD			RFHD			LBHD			RBHD			C7			T10			CLAV			STRN			RBAK			LSHO			LUPA			LELB			LFRM			LWRA			LWRB			LFIN			RSHO			RUPA			RELB			RFRM			RWRA			RWRB			RFIN			LASI			RASI			LPSI			RPSI			LTHI			LKNE			LTIB			LANK			LHEE			LTOE			RTHI			RKNE			RTIB			RANK			RHEE			RTOE			*39			*40			*41			*42		
		X1	Y1	Z1	X2	Y2	Z2	X3	Y3	Z3	X4	Y4	Z4	X5	Y5	Z5	X6	Y6	Z6	X7	Y7	Z7	X8	Y8	Z8	X9	Y9	Z9	X10	Y10	Z10	X11	Y11	Z11	X12	Y12	Z12	X13	Y13	Z13	X14	Y14	Z14	X15	Y15	Z15	X16	Y16	Z16	X17	Y17	Z17	X18	Y18	Z18	X19	Y19	Z19	X20	Y20	Z20	X21	Y21	Z21	X22	Y22	Z22	X23	Y23	Z23	X24	Y24	Z24	X25	Y25	Z25	X26	Y26	Z26	X27	Y27	Z27	X28	Y28	Z28	X29	Y29	Z29	X30	Y30	Z30	X31	Y31	Z31	X32	Y32	Z32	X33	Y33	Z33	X34	Y34	Z34	X35	Y35	Z35	X36	Y36	Z36	X37	Y37	Z37	X38	Y38	Z38	X39	Y39	Z39	X40	Y40	Z40	X41	Y41	Z41	X42	Y42	Z42	X43	Y43	Z43
																																																																																																																																		
176	1.75	253.63013	1723.01221	997.89014	251.90735	1703.32996	1140.24658	123.2978	1648.37683	986.97552	109.14519	1627.18823	1129.20349	70.56197	1508.15454	1065.89331	14.08609	1232.84485	1075.90991	208.55348	1437.0636	1046.76086	259.06958	1265.33545	1065.12842	15.39669	1338.42029	1140.57495	126.07195	1473.51025	881.91058	78.80257	1276.34998	810.46448	51.22794	1137.51563	806.38904	39.13054	1006.27063	793.45862	81.40575	873.73645	814.67328	30.6077	882.93146	791.56293	40.16462	816.78473	785.8996	164.60603	1481.86108	1246.06152	170.74385	1293.67322	1341.82922	217.13028	1153.68408	1366.68127	281.73535	1050.49451	1375.87048	360.76617	945.21179	1344.1947	325.30032	927.83063	1384.27026	381.1459	882.20581	1378.31653	261.60626	975.10968	950.20581	236.19743	952.80188	1209.55859	44.03765	1014.20563	1015.93225	29.37782	1015.4967	1128.41235	262.84277	672.97375	873.86993	296.22186	474.65176	908.06262	296.51733	280.31613	906.15863	370.04446	67.01165	928.58215	346.52274	33.09501	983.54761	527.68982	63.73311	915.03943	90.65575	658.77307	1252.72314	37.98104	454.89133	1210.34961	-66.15595	295.63333	1204.84351	-144.60744	118.87169	1161.16467	-187.02913	73.89	1100.63562	-9.94086	36.60517	1186.87268	150.60474	1787.71985	1086.57581	NaN	NaN	NaN	NaN	NaN	NaN	NaN	NaN	NaN
177	1.76	261.59885	1722.17029	995.78687	259.93484	1702.37952	1138.26294	131.62212	1647.55847	985.12482	117.37751	1626.06458	1127.19006	78.79311	1506.73169	1063.77258	23.51546	1231.05066	1073.14795	217.24515	1436.20178	1044.81738	268.51852	1264.80017	1063.2146	24.22134	1336.39636	1137.76025	134.84351	1472.56885	879.90558	88.41839	1275.16431	808.3634	60.77862	1136.56494	804.08728	49.05666	1005.05103	791.44482	91.61067	872.69598	812.34558	40.75199	881.81476	789.26678	50.28678	815.74182	783.59741	172.53162	1480.65967	1244.12402	178.2298	1292.5426	1339.71924	223.75826	1152.24963	1364.38635	287.75665	1048.82202	1373.76685	366.02328	942.6156	1341.85999	330.72742	925.80341	1382.2467	386.21198	879.70752	1376.26917	272.94196	974.9068	948.34009	246.60803	952.08698	1207.73596	54.9549	1012.87982	1012.6189	39.71365	1014.09241	1125.13794	273.10809	671.61487	872.41949	303.46118	472.5358	906.71307	301.50516	277.99432	906.31885	372.72534	65.3259	929.44098	349.26929	34.58575	983.79022	531.77478	55.0812	916.01959	98.50855	658.66284	1251.505	44.72037	455.05588	1210.01514	-62.00417	297.48795	1204.41968	-142.9214	121.74928	1161.4364	-185.56425	77.44354	1100.6604	-9.8299	36.52069	1187.18726	158.75836	1786.61914	1084.65405	NaN	NaN	NaN	NaN	NaN	NaN	NaN	NaN	NaN
178	1.77	270.30164	1721.37341	994.15668	268.16138	1701.68457	1136.42236	140.1335	1646.44421	982.88763	125.56988	1625.02649	1125.15942	86.9458	1505.45581	1061.48218	32.94791	1229.74829	1069.9917	225.96687	1435.5188	1042.81006	277.96118	1264.55713	1061.30994	32.9421	1334.87427	1134.7395	143.68727	1471.61047	877.69287	97.64928	1274.04919	805.94324	70.67036	1135.37695	801.56696	59.07893	1004.02185	788.90326	102.05951	871.64679	810.00232	51.11765	880.64563	786.8147	61.09684	814.52234	780.98511	180.18634	1479.599	1242.06409	185.59245	1291.27295	1337.54773	230.19183	1150.75623	1362.29895	293.73682	1046.9386	1371.65649	370.86475	939.92133	1339.36121	336.05237	923.72406	1380.30005	391.1554	877.05621	1374.16858	284.15829	974.68842	946.65442	256.95398	951.41339	1205.68835	66.02943	1011.55811	1008.99048	50.05911	1012.54761	1121.65515	282.68668	671.13611	870.84869	309.7489	471.49609	904.6366	307.5752	276.4079	907.48578	378.53217	66.19997	927.7326	353.16687	36.86398	982.16394	537.89227	47.72242	915.52161	106.72812	658.54413	1250.22375	51.80032	455.36356	1209.63306	-57.57006	299.60852	1204.06189	-141.00481	124.91544	1161.9447	-184.24554	81.73884	1101.3385	-9.6241	36.5828	1187.5459	166.9397	1786.10339	1083.08911	NaN	NaN	NaN	NaN	NaN	NaN	NaN	NaN	NaN
179	1.78	278.49344	1721.46289	992.01178	276.43149	1701.50586	1134.58118	148.63181	1646.15552	980.7522	134.00914	1624.75195	1122.96936	94.96265	1504.58557	1059.00586	42.39425	1228.97168	1066.86462	234.59688	1435.28564	1040.71985	287.05627	1264.68176	1059.3595	41.54903	1334.05164	1131.78357	152.53275	1470.78369	875.33368	107.4455	1273.13672	803.53973	80.72436	1134.21838	799.1438	69.51571	1002.77441	786.42218	112.75897	870.51227	807.47687	61.97467	879.45203	784.39984	71.71751	813.43555	778.47125	187.74699	1478.61829	1240.12036	192.87372	1289.9231	1335.34497	236.63188	1149.16541	1359.85107	299.52545	1044.86304	1369.39819	376.43167	937.61694	1337.6167	341.18549	921.5777	1378.28503	395.8764	874.41425	1372.17322	295.51395	974.5896	944.85999	267.5564	950.6792	1203.50366	77.07735	1010.63879	1005.25201	60.3484	1010.93579	1118.03027	292.2355	672.00232	869.08276	316.56235	471.75589	901.96466	315.7854	277.1355	908.19409	385.25705	66.18076	925.51141	356.39542	38.32616	980.04071	543.24738	44.29229	913.90784	115.37682	658.51276	1248.8053	59.46432	455.88077	1209.16638	-52.63657	302.04037	1203.71033	-138.75987	128.63315	1162.47815	-182.28632	86.24553	1101.6759	-9.34308	36.61103	1187.79175	175.24358	1785.67407	1081.10596	NaN	NaN	NaN	NaN	NaN	NaN	NaN	NaN	NaN
180	1.79	287.61353	1721.85132	990.79626	284.71866	1701.57446	1132.59509	157.10495	1646.76929	978.65479	142.35374	1624.95557	1120.75903	103.24905	1504.35046	1056.49414	51.98035	1228.46899	1064.02368	243.12234	1435.36584	1038.66272	296.26526	1264.85205	1057.39526	50.2229	1333.19788	1128.55933	161.54604	1470.00366	872.89221	116.89375	1271.85278	801.07922	91.00362	1133.04968	796.86566	80.44926	1001.79816	783.65057	123.36795	869.03186	805.18622	72.62495	878.33148	781.8634	82.90861	812.45764	775.79071	195.34758	1477.77502	1238.37769	200.03328	1288.63269	1333.00208	243.08662	1147.70593	1357.21692	305.22583	1043.18176	1367.23694	381.65915	935.3905	1335.80493	345.97391	919.53345	1376.2168	400.22934	871.85907	1370.21411	306.75992	974.63568	943.01215	278.22635	950.0011	1201.26587	88.04589	1010.58136	1001.77441	70.67712	1009.41327	1114.49744	301.80768	673.64093	867.01953	325.28802	473.35767	899.60132	323.81964	278.84848	903.47388	387.10175	65.90368	925.52325	357.38477	38.87551	979.86743	544.28809	40.66088	912.47266	124.44177	658.73456	1247.24353	67.73136	456.58762	1208.76147	-47.10205	304.86633	1203.4679	-136.06087	132.74019	1163.08667	-179.96289	91.48969	1102.31848	-8.96898	36.67614	1188.14648	183.56329	1785.88025	1079.09375	NaN	NaN	NaN	NaN	NaN	NaN	NaN	NaN	NaN
181	1.8	295.92361	1722.30884	988.32709	293.10382	1701.78687	1130.62329	165.49832	1647.55774	976.59729	150.61893	1625.37769	1118.48914	111.88136	1504.6438	1053.94763	61.39036	1228.29175	1061.53296	251.45338	1435.77844	1036.64734	305.26227	1265.77234	1055.33569	58.6398	1332.55188	1125.48621	170.4166	1469.74097	870.21747	126.71786	1271.30334	798.39398	101.63703	1132.22632	794.05438	91.33181	1000.99005	781.31927	134.82104	868.94818	802.46149	83.8131	877.64142	779.25452	94.28972	811.85822	773.10559	202.82965	1477.48621	1236.67078	207.04807	1287.52942	1330.54016	249.61153	1146.55261	1354.25232	310.69525	1041.58313	1364.76831	386.28088	933.15436	1333.77283	350.42166	917.70612	1374.13574	404.23492	869.56476	1368.34998	318.07098	975.229	940.87317	288.82401	949.38721	1198.90002	98.28129	1011.75189	998.49933	81.0799	1008.28717	1111.31873	311.3786	675.7962	865.39374	336.16486	475.83322	898.01959	332.14923	280.64438	896.23749	386.90115	66.80271	926.19281	357.04871	38.98441	979.91412	544.57031	38.6673	914.94873	133.87119	659.16907	1245.67871	76.79093	457.49677	1208.53394	-40.86298	308.004	1203.31958	-132.85521	137.42105	1163.94019	-177.34727	97.22204	1102.97949	-8.54349	36.84457	1188.5929	192.16707	1786.245	1076.99976	NaN	NaN	NaN	NaN	NaN	NaN	NaN	NaN	NaN
